<svg width="454" height="295" viewBox="0 0 454 295" fill="none" xmlns="http://www.w3.org/2000/svg">
<path d="M0 5.00001C0 2.23858 2.23858 0 5 0H449C451.761 0 454 2.23858 454 5V295H0V5.00001Z" fill="#C4C4C4"/>
<path d="M285.5 202H168.5C161.044 202 155 195.956 155 188.5V107.5C155 100.044 161.044 94 168.5 94H285.5C292.956 94 299 100.044 299 107.5V188.5C299 195.956 292.956 202 285.5 202ZM186.5 109.75C177.802 109.75 170.75 116.802 170.75 125.5C170.75 134.198 177.802 141.25 186.5 141.25C195.198 141.25 202.25 134.198 202.25 125.5C202.25 116.802 195.198 109.75 186.5 109.75ZM173 184H281V152.5L256.386 127.886C255.068 126.568 252.932 126.568 251.613 127.886L213.5 166L197.886 150.386C196.568 149.068 194.432 149.068 193.113 150.386L173 170.5V184Z" fill="#DDDDDD"/>
</svg>
